<svg xmlns="http://www.w3.org/2000/svg" xmlns:xlink="http://www.w3.org/1999/xlink" width="14px" height="14px" viewBox="0 0 14 14" version="1.1">
    <!-- Generator: Sketch 63 (92445) - https://sketch.com -->
    <title>矩形@3x</title>
    <desc>Created with Sketch.</desc>
    <g id="页面-1" stroke="none" stroke-width="1" fill="none" fill-rule="evenodd">
        <g id="交互说明" transform="translate(-914.000000, -873.000000)">
            <g id="icon-hide-sel备份" transform="translate(914.000000, 873.000000)">
                <g id="编组">
                    <g id="可见" transform="translate(0.000000, 2.000000)">
                        <path d="M14.0001442,5 C14.0001442,5.99150232 10.8661375,9 7.00014424,9 C6.2605404,9 5.54708697,8.88973927 4.87696938,8.70449232 L6.52762005,7.05140504 C6.6325497,7.06759408 6.73978335,7.076 6.84869818,7.076 C8.02469818,7.076 9.00469818,6.096 9.00469818,4.92 C9.00469818,4.81008696 8.99613746,4.70188606 8.97965613,4.59603739 L11.3347439,2.23653206 C12.9581875,3.18601255 14.0001442,4.42829943 14.0001442,5 Z M7.00014424,1 C8.23443063,1 9.39410431,1.30666158 10.4009951,1.75643751 L8.55183037,3.60987361 C8.15487337,3.09794067 7.53517984,2.764 6.84869818,2.764 C5.67269818,2.764 4.69269818,3.744 4.69269818,4.92 C4.69269818,5.60737089 5.02750454,6.2277805 5.54056206,6.62467365 L3.82610473,8.34190809 C1.54954523,7.3977112 -0.0122011633,5.69587858 7.18224313e-05,5 C0.0176307185,4.01262257 3.13415099,1 7.00014424,1 Z M6.84869818,3.646 C7.28888151,3.646 7.6887147,3.88810083 7.91874106,4.2428458 L6.17351961,5.99132143 C5.81769818,5.7615 5.57469818,5.361 5.57469818,4.92 C5.57469818,4.234 6.16269818,3.646 6.84869818,3.646 Z" id="形状结合" fill="#4D4D4D" fill-rule="nonzero"/>
                        <line x1="11.37176" y1="0.227025075" x2="1.74056047" y2="9.87458495" id="路径-8" stroke="#4D4D4D" stroke-linecap="round" stroke-linejoin="round"/>
                    </g>
                </g>
            </g>
        </g>
    </g>
</svg>